<svg width="16" height="16" viewBox="0 0 16 16" fill="none" xmlns="http://www.w3.org/2000/svg">
<g clip-path="url(#clip0_1_2049)">
<path d="M7.3335 1.33334C10.6455 1.33334 13.3335 4.02134 13.3335 7.33334C13.3335 10.6453 10.6455 13.3333 7.3335 13.3333C4.0215 13.3333 1.3335 10.6453 1.3335 7.33334C1.3335 4.02134 4.0215 1.33334 7.3335 1.33334ZM7.3335 12C9.9115 12 12.0002 9.91134 12.0002 7.33334C12.0002 4.75468 9.9115 2.66668 7.3335 2.66668C4.75483 2.66668 2.66683 4.75468 2.66683 7.33334C2.66683 9.91134 4.75483 12 7.3335 12ZM12.9902 12.0473L14.8762 13.9327L13.9328 14.876L12.0475 12.99L12.9902 12.0473Z" fill="#B5B5B5"/>
</g>
<defs>
<clipPath id="clip0_1_2049">
<rect width="16" height="16" fill="white"/>
</clipPath>
</defs>
</svg>
